<?xml version="1.0" encoding="UTF-8"?>
<!DOCTYPE svg PUBLIC "-//W3C//DTD SVG 1.1//EN" "http://www.w3.org/Graphics/SVG/1.1/DTD/svg11.dtd">
<!-- Creator: CorelDRAW -->
<svg xmlns="http://www.w3.org/2000/svg" xml:space="preserve" width="3528px" height="1905px" style="shape-rendering:geometricPrecision; text-rendering:geometricPrecision; image-rendering:optimizeQuality; fill-rule:evenodd; clip-rule:evenodd"
viewBox="0 0 748375 405354"
 xmlns:xlink="http://www.w3.org/1999/xlink">
 <defs>
  <style type="text/css">
   <![CDATA[
    .fil0 {fill:#1F1A17}
    .fil1 {fill:white}
   ]]>
  </style>
 </defs>
 <g id="Layer_x0020_1">
  <metadata id="CorelCorpID_0Corel-Layer"/>
  <path class="fil0" d="M374187 0c-236010,0 -374187,192054 -374187,405354l748375 0c0,-213300 -138177,-405354 -374187,-405354z"/>
  <path class="fil1" d="M105521 312282c191934,0 281043,0 537468,0 -3253.33,-22897.9 -47145.3,-196965 -73755,-118511l-841.743 -208.67c-11167.4,-65787 -27904,-100958 -45041.3,-6238.92l-1065.82 -173.357c-18389.9,-113793 -14311.6,-81780.7 -29046.2,10673 -26706.6,-235113 -113092,-106174 -115723,-56437.3 -4915.63,-54597.1 -520.07,-160042 -28044.6,-4210.64l-971.44 0c-3192.97,-19764 -4642.11,-39890.7 -9579.57,-59291.9 -585.561,-2300.51 -12256.3,55584 -14679.5,74603.1 -7883.24,-53985.2 -19489.8,-126235 -41368.1,-4959.93 -18176.8,-80002.9 -14506.1,-72821.4 -27174,13543 -19498.1,-105710 -19376.1,-37224.2 -25649.1,5677.11 -18151.7,-56412.9 -28479.3,-45569.1 -37787.9,49226.3 -10902.9,-129689 -21204.1,-27647.8 -32960.3,43754.6 -821.839,-9860.79 1352.18,-74259.6 -9587.91,-65653.4 -33027,26040.8 -25435.3,59539.7 -29857.8,99345.6l-848.164 -172.073c-12943.3,-76975.5 -7700.89,-14054.1 -13487.2,19034.6z"/>
 </g>
 <g id="Centerline">
  <metadata id="CorelCorpID_1Corel-Layer"/>
  <path class="fil0" d="M319055 323983c-8039.26,-4194.59 -17368.4,-1077.38 -25525.2,-4274.85 -212.523,-258.109 -416.056,-513.65 -617.022,-769.19 -3924.93,-5001.02 -5581.45,-9562.87 -6266.53,-14072.7 -1153.14,-7592.38 448.801,-15040.3 -1379.79,-24195.5 -898.887,-125.844 -1797.77,-251.046 -2598.43,-384.595 -388.448,-1153.79 -776.895,-2307.57 -1165.98,-3461.36 -2818.01,1805.48 -5530.08,3701.49 -8241.51,5598.14 -459.716,-2037.26 -919.433,-4074.53 -1378.51,-6111.15 -1554.43,321.673 -3108.86,643.988 -4556.71,1056.19 -259.393,-769.19 -420.551,-1546.73 -581.708,-2323.62 -1503.07,-274.803 -2908.54,-556.668 -4305.67,-740.94 -2000.02,12010.4 -4244.67,16041.9 -4581.75,21697.8 -875.131,168.862 -1652.67,330.02 -2429.56,490.535 -19.2619,3458.15 -30.1769,7014.53 56.5015,10562.6 5055.6,2738.39 11796.6,5146.13 16186.4,9154.52 981.713,896.319 1845.29,1872.25 2546.42,2950.28l14.1254 21.188c-623.442,839.817 -1247.53,1680.28 -1871.61,2520.09 -1291.19,-93.7411 -2583.02,-188.124 -3866.5,-184.272 -34.6714,792.947 -69.9848,1585.89 -97.5934,2477.08 -3399.08,-517.502 -4965.07,891.182 -19393.5,764.054 -4717.87,-2190.07 -9428.04,-4281.27 -14040.6,-6380.81 -258.751,-769.19 -419.909,-1546.09 -581.066,-2323.62 -792.947,-35.3134 -1585.89,-69.9848 -2378.84,-105.298 -2712.71,-7979.55 -5562.83,-11503.8 -9104.44,-23663.2 -5267.48,817.345 -10436.7,1626.34 -15598.3,2533.58 1277.06,9773.47 12008.5,10592.1 12747.5,19816 -8265.91,2834.7 -16685.3,2522.02 -25171.4,140.612 -3603.89,-8006.51 -15946.3,-24003.5 -14883.6,-31692.8 769.19,-259.393 1546.09,-419.909 2323.62,-581.066 1745.12,-9028.03 14033.5,-19591.9 20724.5,-26053 -919.433,-11480.7 -1831.8,-22863.2 -2645.3,-34253.4 1752.83,-11398.5 8359.65,-37406.5 20475.4,-40253.4 35.3134,-792.947 70.6268,-1585.89 211.88,-2288.31 7252.73,-3148.67 27717.2,-9035.1 30307.3,-16155.6 1161.49,-290.212 2429.56,-490.535 3696.99,-690.859 35.3134,-792.947 70.6268,-1585.89 204.176,-2386.54 1161.49,-290.854 2331.33,-483.473 3598.76,-683.796 35.3134,-792.305 70.6268,-1585.25 204.176,-2385.9 6498.95,-2693.45 6498.95,-2693.45 43063.7,-9770.9 3575.64,-3446.59 5459.45,-4584.97 10196.6,-5853.68 35.3134,-792.947 70.6268,-1585.89 203.534,-2386.54 10052.1,-1496.65 20112,-2895.06 30269.4,-4301.17 10916.3,4358.96 10916.3,4358.96 15002.4,4821.89 5067.8,5321.41 10712.8,14152.3 17809.5,16447.7 153.453,678.66 313.968,1456.2 475.126,2233.09 792.947,35.3134 1585.89,70.6268 2484.78,195.829 161.158,776.895 321.673,1554.43 482.831,2331.33 792.947,35.3134 1585.89,70.6268 2386.54,204.176 161.158,776.895 322.315,1553.79 482.831,2331.33 4855.27,203.534 9334.94,8041.18 12389.2,11647.6 10535.6,5772.78 20450.3,11199.5 27245.9,20826.6 2940,-1519.12 5977.6,-3045.94 9022.9,-4475.17 626.653,18910.7 11755.5,30856.9 10011,49759.8 2905.33,6680.01 6493.17,9553.24 6765.41,16641.6 -9078.12,6257.54 -15573.9,7765.74 -24339.3,666.46 506.587,2625.39 1013.17,5251.43 1625.7,7967.35 -1352.82,793.589 -2081.57,1221.84 -3221.87,1500.5 -1323.29,324.883 -3202.61,449.443 -7265.57,722.32 -3654.62,-7410.04 -13283,-8021.28 -20512.6,-7046.63 -267.098,-867.426 -428.255,-1644.96 -589.413,-2421.86 -2425.71,-694.711 -4843.07,-1290.54 -7162.84,-1894.73 8248.57,17904.5 8248.57,17904.5 12397.6,24090.2 792.947,35.3134 1585.89,70.6268 2484.78,195.829 5980.17,12324.4 7914.7,13483.3 18090.1,15179.6 2303.72,383.953 5028.63,794.231 8319.84,1368.88 616.38,1530.68 1330.99,3053.65 2044.97,4576.62 -5106.32,1594.24 -7185.96,2748.03 -12265.3,982.355 -152.811,1790.07 -305.622,3580.14 -352.492,5460.1 -8050.17,-638.852 -16092.6,-1179.47 -24036.9,-1727.79l-944.473 -1035c-5395.25,-5903.76 -12299.3,-13019.7 -20221.1,-14156.2 -267.098,-867.426 -428.255,-1644.96 -589.413,-2421.86 -2767.29,-1259.73 -5436.34,-2527.16 -8105.39,-3794.59 -267.098,-867.426 -428.255,-1644.32 -589.413,-2421.86 -792.947,-35.3134 -1585.25,-69.9848 -2378.2,-105.298 -1782.36,-2523.95 -3466.49,-5054.95 -5142.92,-7488.37 -792.947,-35.3134 -1585.89,-70.6268 -2378.84,-105.94 -266.456,-867.426 -427.613,-1644.32 -588.771,-2421.22 -792.947,-35.3134 -1585.89,-70.6268 -2280.6,-113.645 -761.486,-2111.74 -1522.97,-4223.48 -2285.1,-6335.23 -3485.11,871.92 -6970.23,1743.84 -10447.6,2714 -6475.2,10394.3 -21792.9,25052 -21285,37552.9 792.947,35.3134 1585.89,70.6268 2386.54,204.176 152.811,678.66 313.968,1456.2 475.126,2233.09 6262.67,1603.87 10305.7,3047.87 14059.2,7794.63 294.706,372.396 588.129,764.696 880.267,1180.11 -4705.67,1661.01 -9411.35,3321.39 -14109.3,5080.64z"/>
 </g>
</svg>
